# xmcd
# 
# Track frame offsets:
#     150
#     29438
#     52360
#     75355
#     107510
#     135823
#     162998
#     199558
# 
# Disc length: 3032
# 
# Revision: 5
# Processed by: cddbd v1.5.2PL0 Copyright (c) Steve Scherf et al.
# Submitted via: fre:ac v1.0.17
# 
DISCID=5c0bd608
DTITLE=Donald Fagen - Kamakiriad
DYEAR=1993
DGENRE=Rock
TTITLE0=Trans-Island Skyway
TTITLE1=Countermoon
TTITLE2=Springtime
TTITLE3=Snowbound
TTITLE4=Tomorrow's Girls
TTITLE5=Florida Room
TTITLE6=On The Dunes
TTITLE7=Teahouse On The Tracks
EXTD=1993 - Produced by Walter Becker YEAR: 1993
EXTT0=
EXTT1=
EXTT2=
EXTT3=
EXTT4=
EXTT5=
EXTT6=
EXTT7=
PLAYORDER=
